<svg xmlns="http://www.w3.org/2000/svg" viewBox="45 14 355 390">
    <defs></defs>
    <g transform="matrix(1.033333, 0, 0, 1.039124, -6.666647, -5.774796)" data-bx-origin="0.5 0.5">
        <path style="" transform="matrix(0.707107, -0.707107, -0.707107, -0.707107, 200.000122, 416.421303)" data-bx-origin="0.971404 0.971404" d="M 50 25 H 175 V 175 H 25 V 50 A 25 25 0 0 1 50 25 Z" data-bx-shape="rect 25 25 150 150 25 0 0 0 1@a43058d5"></path>
        <ellipse style="" cx="200" cy="-168.934" rx="150" ry="150" transform="matrix(1, 0, 0, -1, 0, 0)"></ellipse>
    </g>
    <g>
        <path style="fill: #3182ce;" transform="matrix(0.707107, -0.707107, -0.707107, -0.707107, 200.000122, 416.421303)" data-bx-origin="0.971404 0.971404" d="M 50 25 H 175 V 175 H 25 V 50 A 25 25 0 0 1 50 25 Z" data-bx-shape="rect 25 25 150 150 25 0 0 0 1@a43058d5"></path>
        <ellipse style="fill: #3182ce;" cx="200" cy="-168.934" rx="150" ry="150" transform="matrix(1, 0, 0, -1, 0, 0)"></ellipse>
    </g>
    <ellipse style="fill: rgb(255, 255, 255);" cx="200" cy="-168.934" rx="100" ry="100" transform="matrix(1, 0, 0, -1, 0, 0)"></ellipse>
    <g id="svgGroup" stroke-linecap="round" fill-rule="evenodd" font-size="9pt" stroke="#000" stroke-width="0.25mm" fill="#000" style="stroke: rgb(0, 0, 0); stroke-width: 0.25mm; fill: rgb(0, 0, 0);" transform="matrix(4.193829, 0, 0, 3.477015, 81.083199, 63.13398)">
        <path d="M 51.662 60.061 L 51.662 41.604 L 49.318 41.604 Q 44.58 56.931 30.83 57.767 A 26.48 26.48 0 0 1 29.396 57.814 Q 19.1 57.814 14.135 49.4 A 25.631 25.631 0 0 1 12.111 45.022 Q 9.865 38.772 9.865 30.275 A 51.639 51.639 0 0 1 10.533 21.638 Q 11.308 17.087 12.979 13.581 A 19.348 19.348 0 0 1 19.923 5.471 Q 24.318 2.736 29.689 2.736 Q 40.146 2.736 45.658 11.192 A 26.102 26.102 0 0 1 47.365 14.26 A 33.1 33.1 0 0 1 49.025 18.459 L 51.369 18.459 L 51.076 0.49 Q 48.927 0.49 48.439 1.857 Q 48.215 2.754 48.162 4.507 A 38.719 38.719 0 0 0 48.146 5.666 A 11.822 11.822 0 0 0 45.792 3.885 Q 43.397 2.468 39.686 1.404 A 45.582 45.582 0 0 0 38.478 1.076 A 39.332 39.332 0 0 0 29.298 0.002 A 33.192 33.192 0 0 0 19.142 1.478 A 26.042 26.042 0 0 0 5.666 11.428 A 31.513 31.513 0 0 0 0.019 28.934 A 38.551 38.551 0 0 0 0.002 30.08 Q 0.002 42.873 7.912 51.564 A 27.929 27.929 0 0 0 26.9 60.441 A 38.07 38.07 0 0 0 29.787 60.549 A 36.747 36.747 0 0 0 47.931 55.492 A 43.555 43.555 0 0 0 48.634 55.08 A 22.323 22.323 0 0 0 48.676 56.495 Q 48.813 58.643 49.407 59.422 A 1.161 1.161 0 0 0 49.806 59.768 Q 50.49 60.061 51.662 60.061 Z" vector-effect="non-scaling-stroke"></path>
    </g>
    <ellipse style="" cx="200" cy="-168.934" rx="10" ry="10" transform="matrix(1, 0, 0, -1, 0, 0)"></ellipse>
    <rect x="-205" y="-170" width="10" height="84.917" style="" data-bx-origin="0.5 0" transform="matrix(-1, 0, 0, -1, 0, 0)"></rect>
    <rect x="-205" y="-100.097" width="10" height="50" style="" data-bx-origin="0.5 0" transform="matrix(0.500001, -0.866025, 0.866025, 0.500001, 386.686859, 46.843555)"></rect>
</svg>